<svg width="10" height="10" viewBox="0 0 10 10" fill="none" xmlns="http://www.w3.org/2000/svg">
<mask id="mask0_2598_23201" style="mask-type:alpha" maskUnits="userSpaceOnUse" x="0" y="0" width="10" height="10">
<path d="M3.39189 8.58708L7.55865 4.42032L5.57952 2.44118L1.41276 6.60794C1.3554 6.66538 1.31465 6.73727 1.29484 6.81599L0.833008 9.16683L3.1834 8.705C3.26231 8.68527 3.3345 8.64447 3.39189 8.58708ZM8.90378 3.07519C9.0719 2.90702 9.16634 2.67897 9.16634 2.44118C9.16634 2.2034 9.0719 1.97534 8.90378 1.80718L8.19266 1.09605C8.02449 0.927938 7.79644 0.833496 7.55865 0.833496C7.32087 0.833496 7.09282 0.927938 6.92465 1.09605L6.21353 1.80718L8.19266 3.78631L8.90378 3.07519Z" fill="#049201"/>
</mask>
<g mask="url(#mask0_2598_23201)">
<rect width="10" height="10" fill="white"/>
</g>
</svg>
