<svg width="30" height="30" viewBox="0 0 30 30" fill="none" xmlns="http://www.w3.org/2000/svg">
<path d="M3.96265 9.29999L15.0001 15.6875L25.9626 9.33745" stroke="#2F3036" stroke-width="1.5" stroke-linecap="round" stroke-linejoin="round"/>
<path d="M15.0001 27.0125V15.675" stroke="#2F3036" stroke-width="1.5" stroke-linecap="round" stroke-linejoin="round"/>
<path d="M12.4126 3.1L5.73765 6.81254C4.22515 7.65004 2.98767 9.75002 2.98767 11.475V18.5375C2.98767 20.2625 4.22515 22.3625 5.73765 23.2L12.4126 26.9126C13.8376 27.7001 16.1751 27.7001 17.6001 26.9126L24.2752 23.2C25.7877 22.3625 27.0251 20.2625 27.0251 18.5375V11.475C27.0251 9.75002 25.7877 7.65004 24.2752 6.81254L17.6001 3.1C16.1626 2.3 13.8376 2.3 12.4126 3.1Z" stroke="#2F3036" stroke-width="1.5" stroke-linecap="round" stroke-linejoin="round"/>
<path d="M21.25 16.55V11.975L9.38751 5.12497" stroke="#2F3036" stroke-width="1.5" stroke-linecap="round" stroke-linejoin="round"/>
</svg>
